Coordinates
version=1
nRows=14
nColumns=40
inDegrees=yes

Units are S.I. units (second, meters, Newtons, ...)
If the header above contains a line with 'inDegrees', this indicates whether rotational values are in degrees (yes) or radians (no).

endheader
time	pelvis_tilt	pelvis_list	pelvis_rotation	pelvis_tx	pelvis_ty	pelvis_tz	hip_flexion_r	hip_adduction_r	hip_rotation_r	knee_angle_r	knee_angle_r_beta	ankle_angle_r	subtalar_angle_r	mtp_angle_r	hip_flexion_l	hip_adduction_l	hip_rotation_l	knee_angle_l	knee_angle_l_beta	ankle_angle_l	subtalar_angle_l	mtp_angle_l	lumbar_extension	lumbar_bending	lumbar_rotation	arm_flex_r	arm_add_r	arm_rot_r	elbow_flex_r	pro_sup_r	wrist_flex_r	wrist_dev_r	arm_flex_l	arm_add_l	arm_rot_l	elbow_flex_l	pro_sup_l	wrist_flex_l	wrist_dev_l
      3.94000000	    -26.06310267	     -1.51707769	      5.66403248	     -0.36709471	      0.75436450	     -0.90123382	     72.23556526	    -11.48407928	      0.69001824	     85.75653044	      1.49673381	     36.65698156	      0.00000000	      0.00000000	     73.46137164	     -9.96648386	      4.08450445	     84.55350479	      1.47573705	     38.26570093	      0.00000000	      0.00000000	    -16.97364057	     -0.02272674	     -7.48760483	     -1.02033497	    -38.25264817	     57.97555360	     69.81648428	     87.81861837	      0.00000000	      0.00000000	    -13.77370067	    -45.02343330	     50.41601315	     83.94065089	     87.83317222	      0.00000000	      0.00000000
      3.94500000	    -25.51321264	     -1.38889675	      5.70871141	     -0.36361873	      0.76197502	     -0.90117458	     70.83540301	    -11.48292370	      0.59196289	     84.67433118	      1.47784587	     36.08109952	      0.00000000	      0.00000000	     71.96724780	     -9.84154894	      3.94849727	     83.37947357	      1.45524634	     37.86619583	      0.00000000	      0.00000000	    -16.55178916	     -0.11748715	     -7.74027141	     -0.96538727	    -37.96130777	     58.08018665	     69.42719455	     87.82044273	      0.00000000	      0.00000000	    -13.80258705	    -45.16437615	     50.86895725	     84.54606486	     87.81455267	      0.00000000	      0.00000000
      3.95000000	    -24.92037118	     -1.16360622	      5.69300581	     -0.35994341	      0.76996899	     -0.90104680	     69.36828394	    -11.47414284	      0.58208432	     83.50980619	      1.45752108	     35.47393954	      0.00000000	      0.00000000	     70.32930274	     -9.78275116	      3.62844034	     82.09610761	      1.43284738	     37.56224052	      0.00000000	      0.00000000	    -16.17123506	     -0.33027341	     -8.01513006	     -0.85296342	    -37.62717208	     58.11538906	     68.97646886	     87.81600823	      0.00000000	      0.00000000	    -13.91901510	    -45.31845387	     51.22506824	     85.19639844	     87.78719513	      0.00000000	      0.00000000
      3.95500000	    -24.32789861	     -0.93758211	      5.71301177	     -0.35617283	      0.77817691	     -0.90089069	     67.88559044	    -11.50516808	      0.56629201	     82.36616069	      1.43756070	     34.72542145	      0.00000000	      0.00000000	     68.65461065	     -9.67415965	      3.30095755	     80.73773903	      1.40913938	     37.08187644	      0.00000000	      0.00000000	    -15.76657365	     -0.54004024	     -8.33912037	     -0.76875316	    -37.30241652	     58.18521465	     68.62430232	     87.81806948	      0.00000000	      0.00000000	    -14.15223657	    -45.50325313	     51.50872943	     85.86651762	     87.75815828	      0.00000000	      0.00000000
      3.96000000	    -23.75861698	     -0.72117980	      5.78146539	     -0.35234183	      0.78664235	     -0.90087770	     66.38514662	    -11.56969478	      0.53979290	     81.09498043	      1.41537442	     34.04455907	      0.00000000	      0.00000000	     66.99991698	     -9.49828304	      3.04301024	     79.34011766	      1.38474628	     36.55276080	      0.00000000	      0.00000000	    -15.34148096	     -0.72024650	     -8.72460398	     -0.72685732	    -37.02779535	     58.16948736	     68.47694750	     87.80686540	      0.00000000	      0.00000000	    -14.46593297	    -45.66803285	     51.64279789	     86.59006480	     87.72990337	      0.00000000	      0.00000000
      3.96500000	    -22.91651967	     -0.45528894	      5.85004016	     -0.34821697	      0.79562560	     -0.90080221	     64.53755545	    -11.70637654	      0.42699314	     79.80302351	      1.39282551	     33.07207285	      0.00000000	      0.00000000	     65.00789230	     -9.33722972	      2.74487581	     77.90429397	      1.35968643	     35.87575985	      0.00000000	      0.00000000	    -15.19084210	     -0.93365718	     -9.19925249	     -0.63647052	    -36.76479620	     58.08379669	     68.36302106	     87.80513441	      0.00000000	      0.00000000	    -14.97528021	    -45.90482665	     51.65366189	     87.35747765	     87.69580143	      0.00000000	      0.00000000
      3.97000000	    -22.43596408	     -0.26773400	      6.01647570	     -0.34434010	      0.80445688	     -0.90095246	     63.05553940	    -11.83105781	      0.36574546	     78.39130387	      1.36818636	     32.29646169	      0.00000000	      0.00000000	     63.42242544	     -9.05462828	      2.56321185	     76.34569065	      1.33248367	     35.17598279	      0.00000000	      0.00000000	    -14.63297871	     -1.07171032	     -9.71565512	     -0.68869520	    -36.57076092	     57.90244392	     68.43182626	     87.79725002	      0.00000000	      0.00000000	    -15.51320538	    -46.01391143	     51.58324603	     87.93000108	     87.66067033	      0.00000000	      0.00000000
      3.97500000	    -21.48096584	      0.12102326	      6.24813433	     -0.33988381	      0.81413920	     -0.90131132	     61.02861960	    -12.23093005	      0.20566966	     77.04374931	      1.34466709	     31.37308391	      0.00000000	      0.00000000	     61.18938107	     -8.65318815	      2.20943579	     74.69586676	      1.30368881	     34.56625390	      0.00000000	      0.00000000	    -14.65135819	     -1.35110567	    -11.47900507	      0.84775569	    -36.33330138	     59.52258148	     68.33971149	     87.82739921	      0.00000000	      0.00000000	    -18.65559065	    -45.64332090	     48.44307923	     88.60234407	     87.63800126	      0.00000000	      0.00000000
      3.98000000	    -20.69799429	      0.37994384	      6.48051996	     -0.33561225	      0.82381124	     -0.90165939	     59.19692664	    -12.57847878	     -0.07291429	     75.57101031	      1.31896295	     30.78810221	      0.00000000	      0.00000000	     59.19747886	     -8.26723249	      2.08715168	     73.00780380	      1.27422656	     33.61482020	      0.00000000	      0.00000000	    -14.41575272	     -1.49665008	    -12.12466494	      0.58855144	    -36.20919503	     58.91938688	     68.78647316	     87.79290004	      0.00000000	      0.00000000	    -19.36476859	    -45.81686414	     48.24852787	     89.10658748	     87.59776863	      0.00000000	      0.00000000
      3.98500000	    -19.93234540	      0.66042566	      6.79334067	     -0.33119995	      0.83392088	     -0.90222087	     57.26926691	    -12.97974599	     -0.34606089	     73.96543852	      1.29094043	     29.69955450	      0.00000000	      0.00000000	     57.16064036	     -7.77592653	      1.99902723	     71.14332340	      1.24168523	     32.67828776	      0.00000000	      0.00000000	    -14.15663759	     -1.65744975	    -12.84564311	      0.27415489	    -36.09101287	     58.28412933	     69.25558705	     87.78830105	      0.00000000	      0.00000000	    -20.12988570	    -45.95865788	     47.96807970	     89.46667620	     87.56355884	      0.00000000	      0.00000000
      3.99000000	    -19.05300492	      0.77743500	      7.10864980	     -0.32643592	      0.84411131	     -0.90277307	     55.13753382	    -13.25872986	     -0.81553418	     72.35412021	      1.26281762	     28.73432251	      0.00000000	      0.00000000	     55.02384346	     -7.43973673	      2.04981285	     69.29684896	      1.20945818	     31.90506006	      0.00000000	      0.00000000	    -14.03985241	     -1.62167389	    -13.68204782	     -0.26397490	    -35.95727373	     57.07374631	     69.95035129	     87.81340751	      0.00000000	      0.00000000	    -21.53612911	    -45.93559936	     47.07439280	     90.00537399	     87.59920307	      0.00000000	      0.00000000
      3.99500000	    -18.31766870	      0.88084641	      7.47688603	     -0.32199009	      0.85469952	     -0.90329677	     53.12157845	    -13.54790517	     -1.31968799	     70.58376188	      1.23191904	     27.30668496	      0.00000000	      0.00000000	     53.03231084	     -7.03505608	      2.22648967	     67.28537896	      1.17435140	     30.64763869	      0.00000000	      0.00000000	    -13.71726340	     -1.58845043	    -14.42063667	     -0.64458436	    -35.94978917	     56.43777546	     70.65355476	     87.80229938	      0.00000000	      0.00000000	    -22.32901622	    -46.07279677	     46.76791198	     90.29860418	     87.55501876	      0.00000000	      0.00000000
      4.00000000	    -17.58933389	      1.05513307	      7.73738412	     -0.31775446	      0.86536116	     -0.90392867	     51.12850835	    -13.80520857	     -1.73086962	     68.74651729	      1.19985308	     25.91360637	      0.00000000	      0.00000000	     51.03021137	     -6.66782656	      2.30109043	     65.26806315	      1.13914260	     29.39406609	      0.00000000	      0.00000000	    -13.44201166	     -1.62129323	    -15.10453065	     -1.07555155	    -36.00408211	     55.63529764	     71.59832103	     87.79460065	      0.00000000	      0.00000000	    -23.23592071	    -46.18607836	     46.32219795	     90.71037956	     87.51237314	      0.00000000	      0.00000000
      4.00500000	    -16.41899752	      1.01439740	      8.17139575	     -0.31276484	      0.87701906	     -0.90458388	     48.42220573	    -13.97224705	     -2.56339657	     66.69285746	      1.16400995	     24.27909511	      0.00000000	      0.00000000	     48.53346563	     -6.46092609	      2.55678719	     63.05102971	      1.10044807	     28.29218461	      0.00000000	      0.00000000	    -13.61685151	     -1.36764415	    -15.85346458	     -1.71291023	    -36.01061109	     54.71436589	     72.39191592	     87.80531955	      0.00000000	      0.00000000	    -24.22717466	    -46.15959944	     45.66116470	     91.14167981	     87.46738795	      0.00000000	      0.00000000
